<svg xmlns="http://www.w3.org/2000/svg" xmlns:xlink="http://www.w3.org/1999/xlink" width="18.11" height="18.06" viewBox="0 0 18.11 18.06"><defs><linearGradient id="a" x1="9.06" y1="19.06" x2="9.06" y2="1" gradientTransform="matrix(1, 0, 0, -1, 0, 19.06)" gradientUnits="userSpaceOnUse"><stop offset="0" stop-color="#4c9ee2"/><stop offset="1" stop-color="#73bfff"/></linearGradient><linearGradient id="b" x1="9.06" y1="14.5" x2="9.06" y2="1" gradientTransform="matrix(1, 0, 0, -1, 0, 19.06)" gradientUnits="userSpaceOnUse"><stop offset="0" stop-color="#fff"/><stop offset="1" stop-color="#fff" stop-opacity="0.59"/></linearGradient></defs><path d="M.23,6.52a.59.59,0,0,0-.11.83.58.58,0,0,0,.82.11l.47-.35.74,10.4a.59.59,0,0,0,.59.55H15.25a.58.58,0,0,0,.58-.55L16.58,7l.59.44a.59.59,0,1,0,.71-.94L9.34.12a.59.59,0,0,0-.71,0Z" fill-rule="evenodd" fill="url(#a)"/><path d="M9.59,5.09a.53.53,0,1,1-.53-.53A.53.53,0,0,1,9.59,5.09Zm1.85,3.18c0,.87-1.13,1.58-2.51,1.58S6.41,9.14,6.41,8.27,7.54,6.68,8.93,6.68,11.44,7.39,11.44,8.27Zm-.26-2.12a.53.53,0,1,0-.53-.53A.52.52,0,0,0,11.18,6.15ZM7.47,5.62a.53.53,0,1,1-.53-.53A.53.53,0,0,1,7.47,5.62Zm1.59,5a3.71,3.71,0,0,0-3.71,3.7v3.71h7.41V14.35A3.7,3.7,0,0,0,9.06,10.65Z" fill-rule="evenodd" fill="url(#b)"/></svg>