<svg xmlns="http://www.w3.org/2000/svg" xmlns:xlink="http://www.w3.org/1999/xlink" width="21.25" height="20" viewBox="0 0 21.25 20"><defs><linearGradient id="a" x1="15.66" y1="-1.09" x2="15.66" y2="11.89" gradientTransform="translate(-3.5 5.5)" gradientUnits="userSpaceOnUse"><stop offset="0" stop-color="#ffad97"/><stop offset="1" stop-color="#ff5b2e"/></linearGradient><linearGradient id="b" x1="15.66" y1="-4.2" x2="15.66" y2="-0.83" gradientTransform="translate(-3.74 5.5)" xlink:href="#a"/><linearGradient id="c" x1="-2.28" y1="-2.5" x2="-2.28" y2="-0.42" gradientTransform="matrix(1, 0, 0, -1, 20.17, -0.42)" xlink:href="#a"/><linearGradient id="d" x1="8.17" y1="7.47" x2="8.17" y2="14.5" gradientTransform="translate(-3.74 5.5)" gradientUnits="userSpaceOnUse"><stop offset="0" stop-color="#ff9071"/><stop offset="1" stop-color="#ff5b2e"/></linearGradient></defs><rect x="4.64" y="4.41" width="15.05" height="12.98" fill="url(#a)"/><path d="M3.88,1.3H20l1,3.37H2.84Z" transform="translate(0.25)" fill="url(#b)"/><rect x="16.85" width="2.08" height="2.08" fill="url(#c)"/><rect x="6.2" y="6.23" width="2.6" height="2.6" rx="0.5" fill="#fffaf5"/><rect x="6.2" y="11.42" width="2.6" height="2.6" rx="0.5" fill="#fffaf5"/><rect x="10.88" y="6.23" width="2.6" height="2.6" rx="0.5" fill="#fffaf5"/><rect x="10.88" y="11.42" width="2.6" height="2.6" rx="0.5" fill="#fffaf5"/><rect x="15.55" y="6.23" width="2.6" height="2.6" rx="0.5" fill="#fffaf5"/><rect x="15.55" y="11.42" width="2.6" height="2.6" rx="0.5" fill="#fffaf5"/><path d="M4.43,13.59c2.07-2.14,7.27,1.6,0,6.41C-2.85,15.19,2.35,11.5,4.43,13.59Z" transform="translate(0.25)" fill-rule="evenodd" fill="url(#d)"/><path d="M0,16.92H1.47l.59-1.18,1,2.31L4,16.33l.74.54.79-2,1,2.56.39-.54H8.79" transform="translate(0.25)" fill="none" stroke="#fff" stroke-linecap="round" stroke-linejoin="round" stroke-width="0.49"/></svg>