<svg xmlns="http://www.w3.org/2000/svg" xmlns:xlink="http://www.w3.org/1999/xlink" width="20" height="20" viewBox="0 0 20 20"><defs><linearGradient id="a" x1="12.07" y1="19" x2="12.07" y2="16.22" gradientTransform="matrix(1, 0, 0, -1, 0, 19)" gradientUnits="userSpaceOnUse"><stop offset="0" stop-color="#ffd986"/><stop offset="1" stop-color="#fabf3e"/></linearGradient><linearGradient id="b" x1="12.07" y1="16.22" x2="12.07" y2="-1" xlink:href="#a"/><linearGradient id="c" x1="19.56" y1="14.96" x2="12" y2="-0.54" gradientTransform="matrix(1, 0, 0, -1, 0, 19)" gradientUnits="userSpaceOnUse"><stop offset="0" stop-color="#ffd984"/><stop offset="1" stop-color="#f5b42a"/></linearGradient></defs><path d="M14.73,0H9.42a1.21,1.21,0,0,0-1.2,1.21V2.78h1.2V1.45a.24.24,0,0,1,.24-.24h4.82a.25.25,0,0,1,.25.24V2.78h1.2V1.21A1.21,1.21,0,0,0,14.73,0Z" transform="translate(-2.07)" fill="url(#a)"/><path d="M2.68,12l1.6,7.07A1.2,1.2,0,0,0,5.45,20H18.69a1.2,1.2,0,0,0,1.18-.94L21.47,12V10.18L19.88,3.7a1.2,1.2,0,0,0-1.17-.92H5.45a1.2,1.2,0,0,0-1.17.94l-1.6,7.07Z" transform="translate(-2.07)" fill="url(#b)"/><path d="M19.88,3.7a1.2,1.2,0,0,0-1.17-.92h-.16a1.07,1.07,0,0,1,.13.31l1.15,4.73a8,8,0,0,1,.43,3.57,10.17,10.17,0,0,1-9.94,8H4.41a1.21,1.21,0,0,0,1,.6H18.69a1.2,1.2,0,0,0,1.18-.94L21.47,12V10.18Z" transform="translate(-2.07)" fill="url(#c)"/><path d="M12.07,8.4a.6.6,0,0,1-.6-.61v-2a.61.61,0,1,1,1.21,0v2A.61.61,0,0,1,12.07,8.4Z" transform="translate(-2.07)" fill="#fff9e2"/><path d="M16.3,8.4A.61.61,0,0,1,15.72,8l-.6-2a.6.6,0,1,1,1.15-.34l.61,2a.61.61,0,0,1-.41.75A.51.51,0,0,1,16.3,8.4Z" transform="translate(-2.07)" fill="#fff9e2"/><path d="M7.85,8.4a.47.47,0,0,1-.17,0,.61.61,0,0,1-.41-.75l.6-2a.61.61,0,0,1,.75-.41A.6.6,0,0,1,9,5.94l-.6,2A.61.61,0,0,1,7.85,8.4Z" transform="translate(-2.07)" fill="#fff9e2"/><path d="M12.07,17.31a.6.6,0,0,1-.6-.6v-2a.61.61,0,0,1,1.21,0v2A.6.6,0,0,1,12.07,17.31Z" transform="translate(-2.07)" fill="#fff9e2"/><path d="M15.7,17.31l-.18,0a.61.61,0,0,1-.4-.76l.6-2a.6.6,0,0,1,1.16.34l-.61,2A.59.59,0,0,1,15.7,17.31Z" transform="translate(-2.07)" fill="#fff9e2"/><path d="M8.45,17.31a.61.61,0,0,1-.58-.43l-.6-2a.6.6,0,1,1,1.16-.34l.6,2a.61.61,0,0,1-.41.75Z" transform="translate(-2.07)" fill="#fff9e2"/><path d="M21.67,12H2.48a.4.4,0,0,1-.41-.4v-1a.4.4,0,0,1,.41-.4H21.67a.4.4,0,0,1,.4.4v1A.4.4,0,0,1,21.67,12Z" transform="translate(-2.07)" fill="#fff"/><path d="M13.83,12.45H10.32a.4.4,0,0,1-.4-.4V10.13a.4.4,0,0,1,.4-.4h3.51a.4.4,0,0,1,.4.4v1.92A.4.4,0,0,1,13.83,12.45Z" transform="translate(-2.07)" fill="#ffe5ac"/><path d="M13.83,9.73H13a2.11,2.11,0,0,1-2.12,2.11h-1v.21a.4.4,0,0,0,.4.4h3.51a.4.4,0,0,0,.4-.4V10.13A.4.4,0,0,0,13.83,9.73Z" transform="translate(-2.07)" fill="#fff6e1"/></svg>